<svg viewBox="0 0 92 92" xmlns="http://www.w3.org/2000/svg">
    <g fill="none" fill-rule="evenodd">
        <path fill="#172126" d="M23 25h45v42H23z"/>
        <path d="M40.343 6.402a8 8 0 0 1 11.314 0l33.941 33.941a8 8 0 0 1 0 11.314L51.657 85.598a8 8 0 0 1-11.314 0L6.402 51.657a8 8 0 0 1 0-11.314L40.343 6.402Zm11.848 40.7a1 1 0 0 0 .236.375l6.238 6.238a1 1 0 0 0 1.65-.376l3.38-9.616a1 1 0 0 0-1.276-1.275l-9.616 3.379a1 1 0 0 0-.612 1.275Zm-7.605 13.04-2.829 2.829a1 1 0 0 0 1.415 1.414L46 61.556a1 1 0 0 0-1.414-1.414Zm7.07-7.07-2.828 2.827a1 1 0 0 0 1.415 1.415l2.828-2.829a1 1 0 0 0-1.414-1.414ZM31.73 39.966l-.045.108-3.38 9.616A1 1 0 0 0 29.47 51l.112-.033 9.616-3.379a1 1 0 0 0 .454-1.563l-.078-.087-2.412-2.412 13.082-13.081a1 1 0 0 0-1.327-1.492l-.088.077-13.081 13.082-2.412-2.412a1 1 0 0 0-1.605.268Z" fill="#FF6A33"/>
    </g>
</svg>